<svg width="20" height="20" viewBox="0 0 20 20" fill="none" xmlns="http://www.w3.org/2000/svg">
<g id="Group">
<path id="Vector" d="M9.99997 7C11.65 7 13 8.35 13 10C13 11.65 11.65 13 9.99997 13C8.34997 13 6.99997 11.65 6.99997 10C6.99997 8.35 8.34997 7 9.99997 7ZM9.99997 6C7.78997 6 5.99997 7.79 5.99997 10C5.99997 12.21 7.78997 14 9.99997 14C12.21 14 14 12.21 14 10C14 7.79 12.21 6 9.99997 6ZM11.22 1L11.77 3.2L11.9 3.71L12.4 3.89C13.01 4.12 13.59 4.45 14.12 4.87L14.52 5.19L15.02 5.05L17.19 4.43L18.41 6.54L16.78 8.13L16.41 8.49L16.49 9C16.54 9.32 16.57 9.64 16.57 9.98C16.57 10.32 16.54 10.64 16.49 10.96L16.41 11.47L16.78 11.83L18.41 13.42L17.19 15.53L15.02 14.91L14.52 14.77L14.12 15.09C13.59 15.52 13.01 15.85 12.4 16.07L11.9 16.25L11.77 16.76L11.22 19H8.77997L8.22997 16.8L8.09997 16.29L7.59997 16.11C6.99997 15.88 6.41997 15.55 5.87997 15.12L5.47997 14.8L4.97997 14.94L2.80997 15.56L1.59997 13.44L3.22997 11.85L3.59997 11.49L3.51997 10.98C3.46997 10.66 3.43997 10.33 3.43997 10C3.43997 9.67 3.46997 9.34 3.51997 9.02L3.59997 8.51L3.22997 8.15L1.59997 6.56L2.81997 4.45L4.98997 5.07L5.48997 5.21L5.88997 4.89C6.41997 4.45 6.99997 4.12 7.60997 3.9L8.10997 3.72L8.23997 3.21L8.77997 1H11.22ZM12 0H7.99997L7.25997 2.96C6.52997 3.23 5.85997 3.62 5.25997 4.1L2.33997 3.27L0.339966 6.73L2.52997 8.86C2.46997 9.23 2.43997 9.61 2.43997 10C2.43997 10.39 2.46997 10.77 2.52997 11.14L0.339966 13.27L2.33997 16.73L5.25997 15.9C5.85997 16.38 6.52997 16.77 7.25997 17.04L7.99997 20H12L12.74 17.04C13.47 16.77 14.14 16.38 14.74 15.9L17.66 16.73L19.66 13.27L17.47 11.14C17.53 10.77 17.56 10.39 17.56 10C17.56 9.61 17.53 9.23 17.47 8.86L19.66 6.73L17.66 3.27L14.74 4.1C14.14 3.62 13.47 3.23 12.74 2.96L12 0Z" fill="white"/>
</g>
</svg>
