<svg width="18" height="17" viewBox="0 0 18 17" fill="none" xmlns="http://www.w3.org/2000/svg">
<g id="Group">
<path id="Vector" d="M13.9999 0H12.9999H3.56995C2.49995 0 1.58995 0.67 1.37995 1.61L0.0399459 7.61C-0.230054 8.85 0.819946 10 2.22995 10H6.45995L4.93995 14.94C4.61995 15.97 5.45995 17 6.61995 17C7.19995 17 7.75995 16.76 8.13995 16.35L13.9999 10H17.9999V0H13.9999ZM7.39995 15.67C7.20995 15.88 6.91995 16 6.61995 16C6.35995 16 6.11995 15.89 5.98995 15.7C5.91995 15.6 5.83995 15.44 5.89995 15.23L7.41995 10.29L7.81995 9H6.45995H2.22995C1.81995 9 1.42995 8.83 1.19995 8.54C1.07995 8.39 0.949946 8.14 1.01995 7.82L2.35995 1.82C2.45995 1.35 2.96995 1 3.56995 1H12.9999V9.61L7.39995 15.67ZM16.9999 9H13.9999V1H16.9999V9Z" fill="white"/>
</g>
</svg>
